<svg width="297" height="52" viewBox="0 0 297 52" fill="none" xmlns="http://www.w3.org/2000/svg">
<path d="M117.855 38.5601C107.185 37.2966 96.0949 36.0332 86.8293 30.5581C84.0216 29.0139 81.4946 26.908 79.6696 24.3811C76.1599 19.7483 75.458 13.1501 77.7042 7.81544C78.4061 6.27118 79.2484 4.86732 80.3715 3.60383C83.46 0.374939 88.5139 -0.888551 92.7255 0.655704C93.2871 0.936477 93.9891 1.21724 93.9891 1.91918C93.9891 2.62111 93.4275 3.04227 92.8659 3.32304C89.3563 5.28846 85.0043 5.9904 82.4773 9.07891C80.2311 11.8866 80.2312 16.2386 81.9158 19.4675C83.6004 22.6964 86.8293 24.9426 90.339 26.2061C87.2505 24.6619 86.2678 20.0291 88.5139 17.3617C88.9351 16.8002 89.7775 16.379 90.339 16.8002C90.6198 16.9406 90.7601 17.2213 90.7601 17.5021C91.4621 19.1868 90.6197 21.1522 90.6197 22.9772C90.6197 26.2061 93.1467 29.0138 95.9545 30.6985C99.3238 32.8043 103.114 33.9274 107.045 33.9274C105.36 33.2254 103.957 31.6812 103.535 29.9965C103.255 28.733 103.676 26.908 105.08 26.908C106.203 26.908 106.764 28.1715 107.185 29.1542C109.432 33.6466 115.047 35.3312 120.101 35.612C125.155 35.8928 130.349 35.1909 135.122 36.7351C134.42 35.4716 133.859 34.3485 133.157 33.0851C133.017 32.8043 132.876 32.5235 132.876 32.1023C132.876 31.4004 133.578 30.8389 134.28 30.8389C134.982 30.8389 135.684 31.1196 136.245 31.5408C139.053 33.2254 148.6 46.7026 148.6 46.7026C148.6 46.7026 140.738 43.1929 138.913 42.6313C135.684 41.5082 132.455 40.8063 129.226 40.2448C125.295 39.5429 121.505 39.1217 117.855 38.5601Z" fill="url(#paint0_diamond)"/>
<path d="M138.351 30.9793C137.088 29.9966 135.965 29.0139 135.122 27.61C134.28 26.2062 133.999 24.5215 134.701 23.1176C134.982 22.4157 135.544 21.8542 136.105 21.433C137.088 20.5907 138.351 19.8888 139.755 20.0292C141.159 20.3099 142.142 21.433 142.984 22.5561C143.967 23.96 144.809 25.3638 145.511 26.7677C144.248 25.2235 142.984 23.3984 143.265 21.5734C143.405 20.5907 143.826 19.7484 144.388 19.0464C145.23 17.9233 146.213 17.081 147.617 16.5195C148.88 16.0983 150.425 16.0983 151.548 16.8002C152.39 17.3618 152.952 18.0637 153.373 18.906C154.075 20.0291 154.496 21.1522 154.636 22.4157C154.777 23.6792 154.355 25.0831 153.513 25.9254C154.355 23.96 155.9 21.9946 157.865 21.1522C158.567 20.8715 159.409 20.8714 160.111 20.8714C162.357 21.0118 163.059 22.8369 163.2 24.1004C163.481 25.9254 162.498 26.9081 161.375 28.1716C158.567 31.6812 155.619 35.1909 152.671 38.5602C151.407 39.9641 150.003 41.2275 148.038 40.1044C146.353 39.1217 145.23 37.1563 143.826 35.7525C142.142 34.0678 140.176 32.5236 138.351 30.9793Z" fill="url(#paint1_diamond)"/>
<path d="M101.851 36.7351C100.307 36.3139 98.622 36.1735 96.9373 36.0331C94.27 35.7524 91.6027 35.6119 88.9353 35.6119C86.8295 35.6119 84.5833 35.8927 82.6179 36.7351C80.5121 37.7178 78.9678 39.4024 77.4236 41.0871C76.862 41.789 76.1601 42.6313 75.8793 43.4736C75.5986 44.1755 75.4582 45.0179 75.8793 45.7198C76.1601 46.4217 77.0025 46.9833 77.7044 46.7025C78.2659 46.5621 78.6871 46.141 79.1083 45.7198C79.6698 44.8775 80.2314 44.0352 80.6525 43.1929C80.091 44.0352 79.389 45.0179 79.9506 45.8602C80.3717 46.5621 81.3545 46.5621 82.0564 46.2813C82.7583 46.0006 83.3198 45.2986 83.741 44.7371C83.1795 44.8775 83.1795 45.7198 83.741 46.1409C84.1622 46.4217 84.8641 46.2814 85.2853 46.0006C85.7064 45.7198 85.9872 45.1582 86.4083 44.7371C88.093 42.0697 90.62 39.964 93.5681 38.8409C95.3931 38.1389 97.2181 37.9985 99.0431 37.8581C101.289 37.7177 103.536 37.9985 105.782 38.1389C105.501 37.7178 102.412 36.8754 101.851 36.7351Z" fill="url(#paint2_diamond)"/>
<path d="M134.28 47.8256C125.576 44.3159 116.03 39.6832 106.624 41.789C106.062 41.9294 105.641 42.3505 105.079 42.6313C103.535 43.4736 102.131 44.3159 101.008 45.5794C100.447 46.2814 99.7448 47.2641 98.7621 47.2641C97.7794 47.2641 97.0774 46.4217 96.5159 45.5794C96.3755 46.2814 96.3755 46.9833 95.9544 47.6852C95.5332 48.2468 94.8312 48.8083 94.1293 48.8083C93.0062 48.668 92.4447 47.6852 92.1639 46.5621C91.462 48.2468 90.4793 50.0718 88.7946 51.0545C87.9523 51.4757 86.6888 51.4757 86.408 50.6334C86.2676 50.3526 86.2676 50.0718 86.408 49.791C86.5484 47.4044 86.8292 45.0179 88.5138 43.3332C94.5505 37.9985 103.114 37.7178 110.555 39.1216C110.976 39.262 111.397 39.262 111.678 39.4024C119.118 41.0871 126.699 44.3159 134.28 47.8256Z" fill="url(#paint3_diamond)"/>
<path d="M139.334 47.8255C136.526 47.5448 133.859 46.8428 131.472 45.4389C130.63 44.8774 129.788 44.3159 129.226 43.4735C128.945 43.0524 128.805 42.3504 129.226 41.9293C129.647 41.5081 130.349 41.9293 130.771 42.2101C131.192 42.6312 131.472 43.0524 131.753 43.6139C131.894 43.1928 132.315 42.7716 132.736 42.7716C133.157 42.7716 133.719 43.0524 133.999 43.3331C134.28 43.6139 134.561 44.0351 134.701 44.5967C134.842 44.1755 135.263 43.8947 135.684 43.8947C136.105 43.7543 136.526 43.8947 136.948 44.0351C138.492 44.4562 139.755 45.5793 141.3 46.1409C142.984 46.8428 144.809 46.9832 146.634 47.1236C146.775 47.1236 146.915 47.1236 147.055 47.264C147.055 47.4044 146.915 47.4044 146.775 47.5447C146.353 47.6851 145.792 47.6851 145.371 47.8255C144.388 47.9659 143.405 48.1063 142.423 48.1063C141.44 47.8255 140.317 47.8255 139.334 47.8255Z" fill="url(#paint4_diamond)"/>
<path d="M89.7775 34.3485C85.0044 33.085 81.2139 29.5754 76.7215 27.3292C71.106 24.5214 64.3675 23.9599 58.3308 25.7849C56.5058 26.3464 54.6808 27.0484 52.7154 26.908C52.4346 26.908 52.2942 26.908 52.1538 26.7676C51.7327 26.4869 51.873 25.7849 52.0134 25.3638C52.9961 23.258 55.3827 22.4156 57.6289 21.9945C60.2962 21.4329 62.9636 21.0118 65.631 21.2925C64.3675 20.731 63.2444 20.029 61.9809 19.4675C61.7001 19.3271 61.279 19.0464 61.4194 18.6252C61.4194 18.4848 61.7001 18.3444 61.8405 18.3444C63.5251 17.6425 65.631 17.7829 67.3156 18.4848C69.0003 19.1867 70.5445 20.3098 72.0888 21.4329C71.5272 20.731 71.1061 19.8887 70.6849 19.0464C71.6676 18.6252 72.7907 19.1867 73.4926 19.8887C74.4753 20.731 75.458 21.5733 76.3004 22.556C77.7042 24.1003 78.8273 25.9253 80.3716 27.61C81.9158 29.435 83.7408 30.8389 85.8466 31.962C86.8294 32.5235 87.9525 33.085 89.0756 33.3658C89.6371 33.5062 90.1986 33.787 90.7602 33.9274C91.3217 34.0677 92.0237 34.0677 92.5852 34.3485C93.2872 34.6293 92.5852 34.91 92.1641 34.91C91.3217 34.7697 90.4794 34.6293 89.7775 34.3485Z" fill="url(#paint5_diamond)"/>
<path d="M75.037 14.9751C74.6158 13.5712 74.1946 12.1674 74.4754 10.7635C74.6158 9.35963 75.3177 8.09614 76.16 6.97304C77.0024 5.84995 77.9851 4.86726 78.8274 3.74416C79.1081 3.323 79.3889 2.90185 79.2486 2.48069C79.1082 1.77876 78.1254 1.35758 77.4235 1.49797C76.16 1.49797 75.0369 2.05952 74.1946 3.04223C73.3523 4.02494 72.9311 5.28841 73.0715 6.4115C72.9311 6.27112 72.6504 6.13075 72.51 5.99036C71.6676 5.5692 70.685 5.56917 69.8426 6.13071C69.1407 6.69226 68.7195 7.67499 68.8599 8.6577C69.1407 9.7808 69.983 10.6231 70.9657 11.325C70.4042 11.1847 69.8426 11.8866 69.8426 12.4481C69.8426 13.2904 70.5446 13.9924 71.2465 14.6943C71.9484 15.3962 72.6504 15.9578 73.2119 16.6597C73.6331 17.0809 74.335 18.0636 75.037 18.204C76.862 18.204 75.1773 15.5367 75.037 14.9751Z" fill="url(#paint6_diamond)"/>
<path d="M179.063 38.5601C189.733 37.2966 200.823 36.0332 210.089 30.5581C212.897 29.0139 215.424 26.908 217.249 24.3811C220.758 19.7483 221.46 13.1501 219.214 7.81544C218.512 6.27118 217.67 4.86732 216.547 3.60383C213.458 0.374939 208.404 -0.888551 204.193 0.655704C203.631 0.936477 202.929 1.21724 202.929 1.91918C202.929 2.62111 203.491 3.04227 204.052 3.32304C207.562 5.28846 211.914 5.9904 214.441 9.07891C216.687 11.8866 216.687 16.2386 215.002 19.4675C213.318 22.6964 210.089 24.9426 206.579 26.2061C209.668 24.6619 210.65 20.0291 208.404 17.3617C207.983 16.8002 207.141 16.379 206.579 16.8002C206.298 16.9406 206.158 17.2213 206.158 17.5021C205.456 19.1868 206.298 21.1522 206.298 22.9772C206.298 26.2061 203.771 29.0138 200.964 30.6985C197.594 32.8043 193.804 33.9274 189.873 33.9274C191.558 33.2254 192.962 31.6812 193.383 29.9965C193.664 28.733 193.242 26.908 191.839 26.908C190.715 26.908 190.154 28.1715 189.733 29.1542C187.487 33.6466 181.871 35.3312 176.817 35.612C171.763 35.8928 166.569 35.1909 161.796 36.7351C162.498 35.4716 163.059 34.3485 163.761 33.0851C163.902 32.8043 164.042 32.5235 164.042 32.1023C164.042 31.4004 163.34 30.8389 162.638 30.8389C161.936 30.8389 161.234 31.1196 160.673 31.5408C157.865 33.2254 148.319 46.7026 148.319 46.7026C148.319 46.7026 156.18 43.1929 158.005 42.6313C161.234 41.5082 164.463 40.8063 167.692 40.2448C171.623 39.5429 175.413 39.1217 179.063 38.5601Z" fill="url(#paint7_diamond)"/>
<path d="M195.068 36.7351C196.612 36.3139 198.296 36.1735 199.981 36.0331C202.648 35.7524 205.316 35.6119 207.983 35.6119C210.089 35.6119 212.335 35.8927 214.301 36.7351C216.406 37.7178 217.951 39.4024 219.495 41.0871C220.056 41.789 220.758 42.6313 221.039 43.4736C221.32 44.1755 221.46 45.0179 221.039 45.7198C220.758 46.4217 219.916 46.9833 219.214 46.7025C218.653 46.5621 218.231 46.141 217.81 45.7198C217.249 44.8775 216.687 44.0352 216.266 43.1929C216.827 44.0352 217.529 45.0179 216.968 45.8602C216.547 46.5621 215.564 46.5621 214.862 46.2813C214.16 46.0006 213.599 45.2986 213.177 44.7371C213.739 44.8775 213.739 45.7198 213.177 46.1409C212.756 46.4217 212.054 46.2814 211.633 46.0006C211.212 45.7198 210.931 45.1582 210.51 44.7371C208.825 42.0697 206.299 39.964 203.35 38.8409C201.525 38.1389 199.7 37.9985 197.875 37.8581C195.629 37.7177 193.383 37.9985 191.137 38.1389C191.417 37.7178 194.506 36.8754 195.068 36.7351Z" fill="url(#paint8_diamond)"/>
<path d="M162.638 47.8256C171.342 44.3159 180.888 39.6832 190.294 41.789C190.856 41.9294 191.277 42.3505 191.839 42.6313C193.383 43.4736 194.787 44.3159 195.91 45.5794C196.471 46.2814 197.173 47.2641 198.156 47.2641C199.139 47.2641 199.841 46.4217 200.402 45.5794C200.543 46.2814 200.543 46.9833 200.964 47.6852C201.385 48.2468 202.087 48.8083 202.789 48.8083C203.912 48.668 204.473 47.6852 204.754 46.5621C205.456 48.2468 206.439 50.0718 208.123 51.0545C208.966 51.4757 210.229 51.4757 210.51 50.6334C210.65 50.3526 210.65 50.0718 210.51 49.791C210.37 47.4044 210.089 45.0179 208.404 43.3332C202.368 37.9985 193.804 37.7178 186.364 39.1216C185.942 39.262 185.521 39.262 185.24 39.4024C177.8 41.0871 170.219 44.3159 162.638 47.8256Z" fill="url(#paint9_diamond)"/>
<path d="M157.584 47.8255C160.392 47.5448 163.059 46.8428 165.446 45.4389C166.288 44.8774 167.13 44.3159 167.692 43.4735C167.973 43.0524 168.113 42.3504 167.692 41.9293C167.271 41.5081 166.569 41.9293 166.148 42.2101C165.727 42.6312 165.446 43.0524 165.165 43.6139C165.025 43.1928 164.603 42.7716 164.182 42.7716C163.761 42.7716 163.2 43.0524 162.919 43.3331C162.638 43.6139 162.357 44.0351 162.217 44.5967C162.076 44.1755 161.655 43.8947 161.234 43.8947C160.813 43.8947 160.392 43.8947 159.971 44.0351C158.426 44.4562 157.163 45.5793 155.619 46.1409C153.934 46.8428 152.109 46.9832 150.284 47.1236C150.144 47.1236 150.003 47.1236 149.863 47.264C149.863 47.4044 150.003 47.4044 150.144 47.5447C150.565 47.6851 151.126 47.6851 151.547 47.8255C152.53 47.9659 153.513 48.1063 154.496 48.1063C155.478 47.8255 156.601 47.8255 157.584 47.8255Z" fill="url(#paint10_diamond)"/>
<path d="M207.141 34.3485C211.914 33.085 215.705 29.5754 220.197 27.3292C225.812 24.5214 232.551 23.9599 238.588 25.7849C240.413 26.3464 242.238 27.0484 244.203 26.908C244.484 26.908 244.624 26.908 244.765 26.7676C245.186 26.4869 245.045 25.7849 244.905 25.3638C243.922 23.258 241.536 22.4156 239.29 21.9945C236.622 21.4329 233.955 21.0118 231.287 21.2925C232.551 20.731 233.674 20.029 234.938 19.4675C235.218 19.3271 235.639 19.0464 235.499 18.6252C235.499 18.4848 235.218 18.3444 235.078 18.3444C233.393 17.6425 231.287 17.7829 229.603 18.4848C227.918 19.1867 226.374 20.3098 224.83 21.4329C225.391 20.731 225.812 19.8887 226.234 19.0464C225.251 18.6252 224.128 19.1867 223.426 19.8887C222.443 20.731 221.46 21.5733 220.618 22.556C219.214 24.1003 218.091 25.9253 216.547 27.61C215.003 29.435 213.178 30.8389 211.072 31.962C210.089 32.5235 208.966 33.085 207.843 33.3658C207.281 33.5062 206.72 33.787 206.158 33.9274C205.597 34.0677 204.895 34.0677 204.333 34.3485C203.631 34.6293 204.333 34.91 204.754 34.91C205.597 34.7697 206.439 34.6293 207.141 34.3485Z" fill="url(#paint11_diamond)"/>
<path d="M221.881 14.9751C222.302 13.5712 222.724 12.1674 222.443 10.7635C222.302 9.35963 221.601 8.09614 220.758 6.97304C219.916 5.84995 218.933 4.86726 218.091 3.74416C217.81 3.323 217.529 2.90185 217.67 2.48069C217.81 1.77876 218.793 1.35758 219.495 1.49797C220.758 1.49797 221.881 2.05952 222.724 3.04223C223.566 4.02494 223.987 5.28841 223.847 6.4115C223.987 6.27112 224.268 6.13075 224.408 5.99036C225.251 5.5692 226.233 5.56917 227.076 6.13071C227.778 6.69226 228.199 7.67499 228.058 8.6577C227.778 9.7808 226.935 10.6231 225.953 11.325C226.514 11.1847 227.076 11.8866 227.076 12.4481C227.076 13.2904 226.374 13.9924 225.672 14.6943C224.97 15.3962 224.268 15.9578 223.706 16.6597C223.285 17.0809 222.583 18.0636 221.881 18.204C220.056 18.204 221.741 15.5367 221.881 14.9751Z" fill="url(#paint12_diamond)"/>
<path d="M254.452 43.4737C254.732 43.6141 255.154 43.7545 255.434 43.7545C255.434 43.7545 255.434 43.7545 255.434 43.8949C255.013 44.316 254.171 44.5968 253.329 44.7372C252.486 45.0179 251.503 45.1584 250.661 45.2987C247.573 44.1757 244.765 42.7718 241.676 41.5083C237.044 39.5429 232.411 37.8582 227.497 36.4544C224.97 35.7524 222.443 35.1909 219.916 34.9101C218.372 34.6293 215.424 35.0505 214.722 33.3659C216.126 32.8043 217.951 32.6639 219.355 32.5235C221.882 32.2428 224.549 32.1024 227.076 32.3831C236.903 33.5062 245.186 40.1044 254.452 43.4737Z" fill="url(#paint13_diamond)"/>
<path d="M296.848 37.5774C296.567 41.0871 294.04 44.0352 291.092 45.8602C288.144 47.6852 284.634 48.3872 281.265 48.8083C275.65 49.5103 270.034 49.5103 264.559 48.8083C265.542 47.966 266.665 46.9833 267.648 45.8602C271.578 46.0006 275.509 45.4391 279.3 44.4563C280.142 44.1756 280.984 43.8948 281.827 43.4736C282.669 42.9121 283.231 41.9294 283.932 41.2274C284.634 40.6659 285.757 40.3851 286.459 40.9467C285.196 39.6832 284.213 37.9985 284.634 36.3139C284.915 35.1908 286.038 34.3485 287.021 34.2081C284.915 33.2254 283.231 31.8215 282.107 29.8561C281.686 29.1542 281.265 28.3119 281.265 27.4695C280.984 24.5214 284.494 22.4156 287.442 22.9771C290.39 23.5387 292.496 26.0657 294.181 28.4523C295.725 31.26 297.269 34.3485 296.848 37.5774Z" fill="url(#paint14_diamond)"/>
<path d="M232.972 46.0007C236.061 47.6853 239.289 49.2296 242.659 50.0719C246.028 50.9142 249.397 50.9142 252.907 50.7738C255.153 50.7738 257.54 50.6334 259.786 49.7911C263.155 48.668 265.823 46.0007 267.928 43.0526C270.034 40.2448 271.719 36.7352 271.017 33.2255C270.596 30.9793 269.332 29.0139 268.069 27.1888C267.507 26.3465 266.805 25.3638 265.823 24.8023C264.559 24.1004 262.874 24.2407 261.471 24.8023C259.365 25.6446 257.399 27.4696 257.54 29.8562C257.54 31.4005 258.522 32.8043 259.505 34.0678C258.663 32.9447 256.557 33.0851 255.855 34.3486C255.434 35.1909 255.574 36.314 256.276 37.1563C256.838 37.9986 257.68 38.5602 258.663 38.9814C257.54 38.5602 256.136 39.9641 256.557 41.0872C256.697 41.5083 256.978 41.7891 257.259 42.2102C257.68 43.1929 257.259 44.316 256.557 45.018C255.855 45.7199 254.872 46.0007 253.749 46.2814C249.538 47.4045 244.905 47.2642 240.693 46.0007C234.657 44.1757 229.462 39.964 223.285 37.9986C221.741 37.5775 219.776 36.8755 218.091 37.0159C218.372 37.9986 220.056 38.5602 220.899 39.1217C222.162 39.8236 223.566 40.666 224.83 41.3679C227.637 43.0525 230.305 44.4564 232.972 46.0007Z" fill="url(#paint15_diamond)"/>
<path d="M42.4671 43.4737C42.1863 43.6141 41.7651 43.7545 41.4844 43.7545C41.4844 43.7545 41.4844 43.7545 41.4844 43.8949C41.9055 44.316 42.7479 44.5968 43.5902 44.7372C44.4325 45.0179 45.4152 45.1584 46.2576 45.2987C49.3461 44.1757 52.1538 42.7718 55.2423 41.5083C59.8751 39.5429 64.5078 37.8582 69.4214 36.4544C71.9483 35.7524 74.4753 35.1909 77.0023 34.9101C78.5465 34.6293 81.4946 35.0505 82.1965 33.3659C80.7927 32.8043 78.9677 32.6639 77.5638 32.5235C75.0368 32.2428 72.3695 32.1024 69.8425 32.3831C60.0154 33.5062 51.7326 40.1044 42.4671 43.4737Z" fill="url(#paint16_diamond)"/>
<path d="M0.0703207 37.5774C0.351094 41.0871 2.87806 44.0352 5.82619 45.8602C8.77431 47.6852 12.284 48.3872 15.6533 48.8083C21.2687 49.5103 26.8842 49.5103 32.3593 48.8083C31.3766 47.966 30.2535 46.9833 29.2708 45.8602C25.34 46.0006 21.4091 45.4391 17.6187 44.4563C16.7763 44.1756 15.934 43.8948 15.0917 43.4736C14.2494 42.9121 13.6879 41.9294 12.9859 41.2274C12.284 40.6659 11.1609 40.3851 10.459 40.9467C11.7225 39.6832 12.7051 37.9985 12.284 36.3139C12.0032 35.1908 10.8801 34.3485 9.89739 34.2081C12.0032 33.2254 13.6878 31.8215 14.8109 29.8561C15.2321 29.1542 15.6533 28.3119 15.6533 27.4695C15.934 24.5214 12.4244 22.4156 9.47625 22.9771C6.52813 23.5387 4.42234 26.0657 2.7377 28.4523C1.19345 31.26 -0.35084 34.3485 0.0703207 37.5774Z" fill="url(#paint17_diamond)"/>
<path d="M63.9463 46.0007C60.8578 47.6853 57.6289 49.2296 54.2596 50.0719C50.8903 50.9142 47.521 50.9142 44.0114 50.7738C41.7652 50.7738 39.3786 50.6334 37.1324 49.7911C33.7631 48.668 31.0958 46.0007 28.99 43.0526C26.8842 40.2448 25.1996 36.7352 25.9015 33.2255C26.3226 30.9793 27.5861 29.0139 28.8496 27.1888C29.4111 26.3465 30.1131 25.3638 31.0958 24.8023C32.3592 24.1004 34.0439 24.2407 35.4478 24.8023C37.5536 25.6446 39.519 27.4696 39.3786 29.8562C39.3786 31.4005 38.3959 32.8043 37.4132 34.0678C38.2555 32.9447 40.3613 33.0851 41.0632 34.3486C41.4844 35.1909 41.344 36.314 40.6421 37.1563C40.0805 37.9986 39.2382 38.5602 38.2555 38.9814C39.3786 38.5602 40.7825 39.9641 40.3613 41.0872C40.2209 41.5083 39.9401 41.7891 39.6594 42.2102C39.2382 43.1929 39.6594 44.316 40.3613 45.018C41.0632 45.7199 42.0459 46.0007 43.169 46.2814C47.3806 47.4045 52.0134 47.2642 56.225 46.0007C62.2616 44.1757 67.456 39.964 73.633 37.9986C75.1772 37.5775 77.1426 36.8755 78.8273 37.0159C78.5465 37.9986 76.8619 38.5602 76.0195 39.1217C74.756 39.8236 73.3522 40.666 72.0887 41.3679C69.281 43.0525 66.6136 44.4564 63.9463 46.0007Z" fill="url(#paint18_diamond)"/>
<defs>
<radialGradient id="paint0_diamond" cx="0" cy="0" r="1" gradientUnits="userSpaceOnUse" gradientTransform="translate(112.506 23.3513) rotate(90) scale(23.3513 36.0934)">
<stop stop-color="#FFBA27"/>
<stop offset="1" stop-color="#B47A00"/>
</radialGradient>
<radialGradient id="paint1_diamond" cx="0" cy="0" r="1" gradientUnits="userSpaceOnUse" gradientTransform="translate(148.776 28.3842) rotate(90) scale(12.1522 14.4724)">
<stop stop-color="#FFBA27"/>
<stop offset="1" stop-color="#B47A00"/>
</radialGradient>
<radialGradient id="paint2_diamond" cx="0" cy="0" r="1" gradientUnits="userSpaceOnUse" gradientTransform="translate(90.6976 41.1942) rotate(90) scale(5.58221 15.0841)">
<stop stop-color="#FFBA27"/>
<stop offset="1" stop-color="#B47A00"/>
</radialGradient>
<radialGradient id="paint3_diamond" cx="0" cy="0" r="1" gradientUnits="userSpaceOnUse" gradientTransform="translate(110.291 44.8664) rotate(90) scale(6.46471 23.9886)">
<stop stop-color="#FFBA27"/>
<stop offset="1" stop-color="#B47A00"/>
</radialGradient>
<radialGradient id="paint4_diamond" cx="0" cy="0" r="1" gradientUnits="userSpaceOnUse" gradientTransform="translate(138.008 44.9287) rotate(90) scale(3.17761 9.04747)">
<stop stop-color="#FFBA27"/>
<stop offset="1" stop-color="#B47A00"/>
</radialGradient>
<radialGradient id="paint5_diamond" cx="0" cy="0" r="1" gradientUnits="userSpaceOnUse" gradientTransform="translate(72.3783 26.3965) rotate(90) scale(8.51355 20.5052)">
<stop stop-color="#FFBA27"/>
<stop offset="1" stop-color="#B47A00"/>
</radialGradient>
<radialGradient id="paint6_diamond" cx="0" cy="0" r="1" gradientUnits="userSpaceOnUse" gradientTransform="translate(74.0595 9.83753) rotate(90) scale(8.36646 5.22645)">
<stop stop-color="#FFBA27"/>
<stop offset="1" stop-color="#B47A00"/>
</radialGradient>
<radialGradient id="paint7_diamond" cx="0" cy="0" r="1" gradientUnits="userSpaceOnUse" gradientTransform="translate(184.412 23.3513) rotate(90) scale(23.3513 36.0934)">
<stop stop-color="#FFBA27"/>
<stop offset="1" stop-color="#B47A00"/>
</radialGradient>
<radialGradient id="paint8_diamond" cx="0" cy="0" r="1" gradientUnits="userSpaceOnUse" gradientTransform="translate(206.221 41.1942) rotate(90) scale(5.58221 15.0841)">
<stop stop-color="#FFBA27"/>
<stop offset="1" stop-color="#B47A00"/>
</radialGradient>
<radialGradient id="paint9_diamond" cx="0" cy="0" r="1" gradientUnits="userSpaceOnUse" gradientTransform="translate(186.627 44.8664) rotate(90) scale(6.46471 23.9886)">
<stop stop-color="#FFBA27"/>
<stop offset="1" stop-color="#B47A00"/>
</radialGradient>
<radialGradient id="paint10_diamond" cx="0" cy="0" r="1" gradientUnits="userSpaceOnUse" gradientTransform="translate(158.91 44.9287) rotate(90) scale(3.17761 9.04747)">
<stop stop-color="#FFBA27"/>
<stop offset="1" stop-color="#B47A00"/>
</radialGradient>
<radialGradient id="paint11_diamond" cx="0" cy="0" r="1" gradientUnits="userSpaceOnUse" gradientTransform="translate(224.54 26.3965) rotate(90) scale(8.51355 20.5052)">
<stop stop-color="#FFBA27"/>
<stop offset="1" stop-color="#B47A00"/>
</radialGradient>
<radialGradient id="paint12_diamond" cx="0" cy="0" r="1" gradientUnits="userSpaceOnUse" gradientTransform="translate(222.859 9.83753) rotate(90) scale(8.36646 5.22645)">
<stop stop-color="#FFBA27"/>
<stop offset="1" stop-color="#B47A00"/>
</radialGradient>
<radialGradient id="paint13_diamond" cx="0" cy="0" r="1" gradientUnits="userSpaceOnUse" gradientTransform="translate(235.078 38.7644) rotate(90) scale(6.53432 20.3561)">
<stop stop-color="#FFBA27"/>
<stop offset="1" stop-color="#B47A00"/>
</radialGradient>
<radialGradient id="paint14_diamond" cx="0" cy="0" r="1" gradientUnits="userSpaceOnUse" gradientTransform="translate(280.739 36.1105) rotate(90) scale(13.2243 16.1796)">
<stop stop-color="#FFBA27"/>
<stop offset="1" stop-color="#B47A00"/>
</radialGradient>
<radialGradient id="paint15_diamond" cx="0" cy="0" r="1" gradientUnits="userSpaceOnUse" gradientTransform="translate(244.635 37.5852) rotate(90) scale(13.2582 26.5438)">
<stop stop-color="#FFBA27"/>
<stop offset="1" stop-color="#B47A00"/>
</radialGradient>
<radialGradient id="paint16_diamond" cx="0" cy="0" r="1" gradientUnits="userSpaceOnUse" gradientTransform="translate(61.8405 38.7644) rotate(90) scale(6.53432 20.3561)">
<stop stop-color="#FFBA27"/>
<stop offset="1" stop-color="#B47A00"/>
</radialGradient>
<radialGradient id="paint17_diamond" cx="0" cy="0" r="1" gradientUnits="userSpaceOnUse" gradientTransform="translate(16.1796 36.1105) rotate(90) scale(13.2243 16.1796)">
<stop stop-color="#FFBA27"/>
<stop offset="1" stop-color="#B47A00"/>
</radialGradient>
<radialGradient id="paint18_diamond" cx="0" cy="0" r="1" gradientUnits="userSpaceOnUse" gradientTransform="translate(52.2835 37.5852) rotate(90) scale(13.2582 26.5438)">
<stop stop-color="#FFBA27"/>
<stop offset="1" stop-color="#B47A00"/>
</radialGradient>
</defs>
</svg>
